<svg xmlns="http://www.w3.org/2000/svg" viewBox="0 0 80 80">
    <defs>
        <linearGradient id="fashion-bg" x1="0%" y1="0%" x2="100%" y2="100%">
            <stop offset="0%" stop-color="#ffc0dd"/>
            <stop offset="100%" stop-color="#ff6fa5"/>
        </linearGradient>
        <linearGradient id="fashion-metal" x1="0%" y1="0%" x2="0%" y2="100%">
            <stop offset="0%" stop-color="#ffffff" stop-opacity="0.9"/>
            <stop offset="100%" stop-color="#ffe4f0" stop-opacity="0.4"/>
        </linearGradient>
    </defs>
    <rect width="80" height="80" rx="22" fill="url(#fashion-bg)"/>
    <g transform="translate(18 18)">
        <path d="M10 12c0-3.3 2.7-6 6-6h12c3.3 0 6 2.7 6 6v4h4c2 0 3 1.7 2.3 3.4l-7.3 19.6c-0.5 1.3-1.7 2-3.1 2h-16c-1.4 0-2.6-0.8-3.1-2l-7.3-19.6C2 17.7 3 16 5 16h5v-4z" fill="url(#fashion-metal)" stroke="#f75f95" stroke-width="2" stroke-linejoin="round"/>
        <path d="M23 6l-3 6-3-6" fill="none" stroke="#f75f95" stroke-width="2" stroke-linecap="round"/>
        <path d="M18 24l4 6 4-6M16 18l4 6h8l4-6" fill="none" stroke="#f75f95" stroke-width="2" stroke-linecap="round"/>
        <circle cx="16" cy="16" r="2" fill="#fff5fa" opacity="0.7"/>
        <circle cx="32" cy="16" r="2" fill="#fff5fa" opacity="0.7"/>
    </g>
</svg>
