<svg xmlns="http://www.w3.org/2000/svg" viewBox="0 0 80 80">
    <defs>
        <linearGradient id="hair-bg" x1="0%" y1="0%" x2="100%" y2="100%">
            <stop offset="0%" stop-color="#f2d4ff"/>
            <stop offset="100%" stop-color="#8f64d9"/>
        </linearGradient>
        <linearGradient id="hair-strand" x1="0%" y1="0%" x2="100%" y2="100%">
            <stop offset="0%" stop-color="#fff" stop-opacity="0.9"/>
            <stop offset="100%" stop-color="#c89ae8" stop-opacity="0.2"/>
        </linearGradient>
    </defs>
    <rect width="80" height="80" rx="22" fill="url(#hair-bg)"/>
    <g transform="translate(24 14)" fill="none" stroke-linecap="round">
        <path d="M8 50c6-12 2-28 12-38 10-10 12 6 6 18-6 12-4 18 2 24" stroke="url(#hair-strand)" stroke-width="3.5"/>
        <path d="M4 44c5-10 1-22 10-32 8-9 10 3 5 14-5 11-4 16 1 22" stroke="#fdf5ff" stroke-width="2.5" opacity="0.7"/>
        <path d="M20 48c5-9 5-20 14-32" stroke="#4f2d6f" stroke-width="2.5" opacity="0.2"/>
        <circle cx="18" cy="12" r="3" fill="#fff" opacity="0.45"/>
        <circle cx="6" cy="26" r="2.2" fill="#fff" opacity="0.55"/>
    </g>
</svg>
