<svg xmlns="http://www.w3.org/2000/svg" viewBox="0 0 80 80">
    <defs>
        <linearGradient id="ugc-bg" x1="0%" y1="0%" x2="100%" y2="100%">
            <stop offset="0%" stop-color="#b4f0ff"/>
            <stop offset="100%" stop-color="#5ac7ff"/>
        </linearGradient>
        <linearGradient id="ugc-person" x1="0%" y1="0%" x2="100%" y2="100%">
            <stop offset="0%" stop-color="#ffffff" stop-opacity="0.95"/>
            <stop offset="100%" stop-color="#d1f3ff" stop-opacity="0.6"/>
        </linearGradient>
    </defs>
    <rect width="80" height="80" rx="22" fill="url(#ugc-bg)"/>
    <g transform="translate(16 18)">
        <rect x="4" y="12" width="28" height="22" rx="5" fill="#0b6e9b" opacity="0.2"/>
        <rect x="6" y="14" width="24" height="18" rx="4" fill="#0b6e9b" opacity="0.35"/>
        <rect x="34" y="8" width="26" height="22" rx="6" fill="#0b6e9b" opacity="0.15"/>
        <circle cx="46" cy="18" r="6" fill="#fff" opacity="0.6"/>
        <path d="M40 32c0-4.4 3.6-8 8-8s8 3.6 8 8v6H40v-6z" fill="#fff" opacity="0.6"/>
        <circle cx="18" cy="16" r="6" fill="url(#ugc-person)"/>
        <path d="M10 32c0-4.4 3.6-8 8-8s8 3.6 8 8v6H10v-6z" fill="url(#ugc-person)"/>
        <path d="M22 8l4-6h12l4 6" fill="none" stroke="#0b6e9b" stroke-width="2" stroke-linecap="round" opacity="0.6"/>
        <circle cx="28" cy="23" r="2" fill="#49b7e5" opacity="0.7"/>
    </g>
</svg>
